<?xml version="1.0" standalone="no"?>
<!DOCTYPE svg PUBLIC "-//W3C//DTD SVG 20010904//EN"
 "http://www.w3.org/TR/2001/REC-SVG-20010904/DTD/svg10.dtd">
<svg version="1.0" xmlns="http://www.w3.org/2000/svg"
 width="18pt" height="18pt" viewBox="0 0 642.000000 642.000000"
 preserveAspectRatio="xMidYMid meet">

<g transform="translate(0.000000,642.000000) scale(0.100000,-0.100000)"
fill="#000000" stroke="none">
<path d="M0 3210 l0 -3210 3210 0 3210 0 0 3210 0 3210 -3210 0 -3210 0 0
-3210z m5849 3061 c51 -10 87 -35 119 -81 l22 -33 0 -2492 0 -2492 -22 -33
c-39 -57 -72 -75 -138 -75 -63 0 -95 16 -134 69 l-21 27 -5 2392 -5 2392
-2482 3 -2483 2 0 -2745 0 -2745 2583 0 2582 0 40 -23 c46 -26 85 -87 85 -136
0 -51 -36 -117 -78 -143 l-37 -23 -2691 0 -2690 0 -35 24 c-19 13 -46 40 -60
60 l-24 36 -3 2924 c-1 1988 1 2936 8 2962 18 65 68 114 135 130 42 10 5281
10 5334 0z m-4301 -948 c15 -10 261 -300 547 -643 l520 -623 5 584 c4 410 8
592 17 610 17 38 78 87 118 95 79 15 165 -33 185 -104 8 -25 10 -299 8 -874
-3 -827 -3 -837 -24 -864 -35 -47 -70 -67 -126 -71 -42 -3 -60 0 -90 19 -22
14 -244 272 -555 647 l-518 624 -5 -589 c-5 -585 -5 -589 -27 -624 -64 -102
-203 -105 -277 -6 -21 27 -21 37 -24 864 -2 555 1 849 7 873 27 93 160 139
239 82z m3416 -3 c55 -27 79 -63 84 -124 3 -41 -1 -58 -20 -86 -49 -73 -23
-70 -690 -70 l-598 0 0 -245 0 -244 549 -3 c540 -3 550 -3 578 -24 71 -52 93
-136 53 -201 -43 -71 -13 -67 -625 -73 l-550 -5 -3 -252 -2 -253 612 -2 613
-3 33 -23 c43 -31 65 -77 64 -131 0 -47 -20 -81 -66 -115 -27 -21 -38 -21
-724 -24 -383 -2 -712 0 -730 3 -40 7 -101 59 -118 102 -11 26 -14 185 -14
842 0 549 3 819 11 838 15 40 48 73 94 94 38 17 80 19 724 19 666 0 686 -1
725 -20z m-2654 -2354 c413 -74 713 -383 776 -800 40 -262 -34 -543 -198 -749
-383 -483 -1172 -475 -1544 16 -55 72 -134 235 -157 322 -134 504 135 1016
616 1175 149 49 354 63 507 36z m1348 -13 c15 -10 261 -300 547 -643 l520
-623 5 590 5 589 25 37 c69 100 200 102 274 3 21 -27 21 -34 21 -886 0 -852 0
-859 -21 -886 -35 -47 -70 -67 -126 -71 -42 -3 -60 0 -90 19 -22 14 -244 272
-555 647 l-518 624 -5 -584 c-4 -411 -8 -591 -17 -609 -30 -66 -95 -104 -165
-98 -52 5 -89 27 -122 72 -21 27 -21 37 -24 859 -2 458 0 846 3 864 7 40 49
91 90 109 40 19 119 12 153 -13z"/>
<path d="M1962 2660 c-199 -52 -357 -202 -429 -407 -26 -72 -28 -89 -28 -233
0 -143 3 -161 27 -228 124 -338 457 -505 793 -398 204 65 362 243 411 462 23
104 15 291 -16 384 -56 168 -170 301 -322 374 -51 24 -117 49 -146 55 -80 17
-207 12 -290 -9z"/>
</g>
</svg>
