<?xml version="1.0" standalone="no"?>
<!DOCTYPE svg PUBLIC "-//W3C//DTD SVG 20010904//EN"
 "http://www.w3.org/TR/2001/REC-SVG-20010904/DTD/svg10.dtd">
<svg version="1.0" xmlns="http://www.w3.org/2000/svg"
 width="18pt" height="18pt" viewBox="0 0 800.000000 800.000000"
 preserveAspectRatio="xMidYMid meet">

<g transform="translate(0.000000,800.000000) scale(0.100000,-0.100000)"
fill="#000000" stroke="none">
<path d="M5231 6396 c-7 -8 -19 -12 -27 -9 -22 8 -85 -6 -78 -19 4 -6 -1 -8
-15 -3 -15 5 -21 2 -21 -10 0 -13 8 -16 38 -13 23 2 36 8 35 16 -3 14 13 16
22 2 3 -5 15 -10 27 -10 14 0 18 -5 14 -16 -5 -13 -1 -15 19 -12 14 3 25 4 25
2 0 -2 -15 -17 -32 -33 -29 -28 -34 -29 -45 -15 -11 14 -14 14 -34 -5 -26 -24
-28 -24 -48 -12 -9 6 -11 18 -7 35 5 21 2 27 -18 32 -16 4 -23 11 -19 20 8 21
-14 17 -29 -5 -13 -18 -16 -18 -153 0 -185 25 -666 37 -815 20 -542 -63 -965
-332 -1254 -800 -90 -146 -126 -225 -126 -276 l0 -46 -67 6 c-181 15 -355 25
-364 20 -5 -4 -9 -13 -9 -21 0 -8 -6 -14 -14 -14 -7 0 -19 -7 -26 -15 -20 -24
5 -45 55 -45 l43 0 5 -237 c5 -256 16 -327 72 -483 106 -293 322 -547 650
-765 100 -67 120 -76 230 -105 324 -85 751 -220 940 -297 205 -83 331 -162
362 -229 16 -32 15 -33 -13 -58 -41 -36 -129 -81 -199 -103 -86 -26 -514 -26
-654 1 -284 53 -683 189 -1073 366 -72 33 -144 60 -160 60 -33 0 -33 -3 9
-124 31 -94 30 -121 -8 -153 l-30 -26 30 -21 c17 -11 30 -25 30 -31 0 -5 -13
-46 -28 -90 -21 -62 -30 -79 -44 -77 -10 2 -17 -3 -17 -12 0 -8 -10 -16 -22
-19 -20 -3 -19 -5 9 -12 25 -6 32 -13 31 -29 0 -11 4 -34 11 -50 14 -34 10
-39 -29 -39 -16 0 -27 -4 -24 -9 3 -4 12 -8 20 -8 8 0 14 -7 14 -15 0 -8 9
-15 19 -15 30 0 61 -47 61 -91 l0 -37 -32 15 c-43 21 -69 44 -62 55 8 13 -38
47 -64 48 -13 0 -37 14 -52 30 -16 17 -38 30 -52 30 -20 -1 -17 -6 27 -45 28
-24 49 -50 48 -57 -2 -7 36 -40 83 -73 55 -38 80 -61 69 -63 -13 -3 -14 -7 -4
-18 15 -18 5 -18 -24 0 -12 7 -44 16 -72 20 l-50 6 45 -24 c121 -63 122 -64
103 -75 -16 -8 -16 -13 -5 -31 10 -17 10 -25 1 -36 -19 -23 -39 -16 -81 26
-22 22 -44 40 -49 40 -4 0 -15 10 -23 22 -9 12 -19 18 -23 14 -5 -4 18 -31 50
-59 31 -29 57 -57 57 -63 0 -7 9 -14 20 -17 12 -3 20 -14 20 -26 0 -12 33 -54
83 -104 70 -72 98 -92 192 -139 230 -116 465 -187 994 -298 l235 -50 425 0
426 0 143 64 c718 323 1096 690 1138 1103 7 63 7 63 -19 63 -14 0 -28 3 -31 8
-2 4 9 39 26 77 29 67 30 74 24 169 -7 115 -37 268 -72 376 -36 109 -125 281
-202 390 -137 194 -402 429 -657 582 -182 109 -219 124 -396 163 -395 86 -660
165 -824 245 -275 133 -234 237 129 328 l141 35 124 -23 c269 -49 554 -123
759 -196 132 -48 359 -152 444 -204 44 -27 108 -41 108 -22 0 19 60 456 63
458 2 2 73 -3 158 -11 85 -8 209 -18 275 -21 l122 -7 7 32 c5 26 1 40 -19 72
l-26 39 -89 0 -89 0 -10 45 c-7 32 -4 112 11 285 l21 240 -27 28 c-15 16 -27
39 -27 54 0 22 27 123 47 174 7 19 -53 18 -87 -1 -38 -22 -57 -20 -36 4 14 15
16 29 11 64 -8 51 6 68 34 43 21 -19 41 -20 65 -3 17 12 17 18 7 50 -12 35
-15 37 -54 37 -36 -1 -40 -2 -25 -13 14 -11 11 -15 -28 -33 -28 -13 -45 -17
-47 -10 -3 6 -15 1 -30 -12 -22 -21 -26 -22 -34 -7 -6 10 -16 13 -27 9 -14 -5
-17 -14 -12 -35 3 -16 1 -29 -4 -29 -5 0 -10 15 -12 33 -3 29 -6 32 -31 29
-18 -2 -26 1 -22 7 3 6 -1 11 -9 11 -9 0 -16 -3 -16 -8 0 -4 -18 -7 -40 -7
-22 0 -40 1 -40 2 0 1 15 10 33 20 l32 17 -30 7 -30 6 33 8 c39 9 42 25 4 25
-33 0 -52 -16 -52 -45 0 -26 -23 -48 -72 -68 -20 -8 -41 -25 -48 -36 -12 -24
-48 -28 -56 -6 -4 8 -12 15 -20 15 -8 0 -14 10 -13 23 0 15 2 17 6 7 12 -30
53 -42 53 -15 0 8 -6 15 -14 15 -8 0 -16 10 -18 23 -4 30 -31 28 -38 -3 -3
-14 -15 -29 -28 -35 -12 -5 -23 -16 -26 -25 -2 -8 -4 9 -5 38 -1 42 2 52 16
52 9 0 32 5 50 12 36 13 45 38 14 38 -12 0 -21 9 -25 25 -4 15 -13 25 -25 25
-22 0 -34 -33 -18 -49 8 -8 8 -14 -1 -23 -8 -8 -13 -1 -18 31 -6 35 -10 42
-25 38 -11 -3 -23 1 -27 10 -7 12 -10 12 -21 -1z m424 -166 c14 0 25 -7 28
-20 4 -15 10 -18 24 -13 15 6 16 4 6 -8 -16 -20 -74 -25 -67 -5 3 7 -2 20 -10
29 -9 9 -16 22 -15 29 0 10 2 10 6 1 2 -7 15 -13 28 -13z m-50 -20 c-3 -5 -17
-10 -31 -10 -14 0 -22 4 -19 10 3 6 17 10 31 10 14 0 22 -4 19 -10z m308 -30
c-8 -31 -23 -23 -23 11 0 26 3 29 14 20 8 -7 12 -21 9 -31z m-683 10 c0 -5 -4
-10 -10 -10 -5 0 -10 5 -10 10 0 6 5 10 10 10 6 0 10 -4 10 -10z m588 -68 c-5
-24 -53 -29 -55 -5 -1 13 7 19 28 20 24 2 30 -1 27 -15z m32 -18 c0 -8 -4 -12
-10 -9 -5 3 -10 10 -10 16 0 5 5 9 10 9 6 0 10 -7 10 -16z m-2530 -3324 c0 -5
-12 -10 -26 -10 -14 0 -23 -4 -19 -10 3 -5 2 -10 -3 -10 -14 0 -33 26 -25 33
10 11 73 8 73 -3z m-120 -77 c0 -20 -3 -24 -11 -16 -7 7 -9 19 -6 27 10 24 17
19 17 -11z m200 -207 c0 -8 -4 -18 -10 -21 -5 -3 -10 3 -10 14 0 12 5 21 10
21 6 0 10 -6 10 -14z m-95 -166 c8 -16 15 -38 15 -50 0 -18 -3 -19 -20 -10
-24 13 -42 53 -34 75 9 23 22 18 39 -15z m144 -96 c-16 -19 -29 -17 -29 4 0
26 11 34 27 21 10 -9 10 -15 2 -25z m-499 -36 c0 -15 -31 -21 -43 -9 -6 6 -19
11 -29 11 -11 0 -18 7 -18 20 0 18 1 19 45 2 25 -9 45 -20 45 -24z m601 12
c20 -11 25 -45 10 -68 -11 -18 -67 33 -76 71 -7 26 -6 27 20 17 14 -5 35 -15
46 -20z m-688 -37 c-21 -8 -15 -20 12 -27 14 -4 25 -11 25 -17 0 -12 -58 -2
-78 13 -17 14 3 38 32 37 11 0 15 -3 9 -6z m407 -58 c-13 -33 12 -58 52 -53
22 4 28 1 26 -11 -4 -23 -43 -25 -84 -6 -37 17 -65 55 -41 55 8 0 22 9 32 20
24 26 26 25 15 -5z m-70 5 c0 -5 -10 -10 -21 -10 -17 0 -19 -3 -10 -14 13 -16
-2 -32 -19 -21 -11 7 -13 38 -3 48 10 11 53 8 53 -3z m-315 -80 c3 -5 1 -10
-4 -10 -6 0 -11 5 -11 10 0 6 2 10 4 10 3 0 8 -4 11 -10z"/>
<path d="M2219 3211 c-13 -11 -20 -23 -16 -27 4 -4 17 2 29 14 28 28 18 38
-13 13z"/>
<path d="M1945 3040 c-3 -5 -2 -17 3 -26 8 -14 10 -12 14 10 5 26 -5 35 -17
16z"/>
<path d="M2093 2763 c-15 -6 -17 -33 -3 -33 5 0 14 9 20 20 11 20 6 23 -17 13z"/>
<path d="M1855 2733 c9 -40 33 -73 52 -73 14 0 14 3 -4 20 -12 10 -24 33 -28
50 -4 16 -11 30 -17 30 -6 0 -7 -11 -3 -27z"/>
<path d="M1960 2655 c0 -9 5 -15 11 -13 6 2 11 8 11 13 0 5 -5 11 -11 13 -6 2
-11 -4 -11 -13z"/>
<path d="M1750 2623 c0 -10 5 -25 10 -33 8 -12 10 -9 10 12 0 15 -4 30 -10 33
-5 3 -10 -2 -10 -12z"/>
<path d="M2095 2618 c-6 -14 -28 -29 -59 -40 -53 -19 -70 -14 -81 23 -4 10
-10 19 -15 19 -5 0 -4 -12 2 -26 9 -19 9 -30 0 -44 -6 -11 -9 -26 -6 -35 6
-14 8 -14 19 2 11 15 13 15 24 -5 17 -32 31 -27 31 12 0 31 3 34 48 46 57 16
61 19 53 48 l-6 23 -10 -23z"/>
<path d="M1772 2548 c5 -32 28 -35 28 -4 0 17 -5 26 -16 26 -10 0 -14 -7 -12
-22z"/>
<path d="M2020 2462 c0 -12 34 -42 48 -42 19 0 14 18 -10 34 -25 18 -38 20
-38 8z"/>
<path d="M1974 2415 c-8 -33 -2 -38 21 -21 11 8 16 20 12 30 -9 24 -26 19 -33
-9z"/>
<path d="M1600 2407 c-38 -57 -38 -57 8 -23 26 18 30 26 19 34 -10 8 -16 6
-27 -11z"/>
<path d="M2210 2385 c7 -9 15 -13 17 -11 7 7 -7 26 -19 26 -6 0 -6 -6 2 -15z"/>
<path d="M2080 2293 c0 -5 5 -15 10 -23 8 -12 10 -11 10 8 0 12 -4 22 -10 22
-5 0 -10 -3 -10 -7z"/>
</g>
</svg>
